<mxfile host="app.diagrams.net" modified="2024-03-29T01:00:37.850Z" agent="Mozilla/5.0 (Windows NT 10.0; Win64; x64) AppleWebKit/537.36 (KHTML, like Gecko) Chrome/122.0.0.0 Safari/537.36 Edg/122.0.0.0" etag="vXi-G_ubOtkOpfwVwdQ_" version="24.0.8" type="github">
  <diagram name="第 1 页" id="T6Q55vg58bslfouwRuF3">
    <mxGraphModel dx="865" dy="490" grid="1" gridSize="10" guides="1" tooltips="1" connect="1" arrows="1" fold="1" page="1" pageScale="1" pageWidth="827" pageHeight="1169" math="0" shadow="0">
      <root>
        <mxCell id="0" />
        <mxCell id="1" parent="0" />
        <mxCell id="O7zSQvzKoPBCbMSIORTm-3" value="" style="edgeStyle=orthogonalEdgeStyle;rounded=0;orthogonalLoop=1;jettySize=auto;html=1;" edge="1" parent="1">
          <mxGeometry relative="1" as="geometry">
            <mxPoint x="574" y="540" as="sourcePoint" />
            <mxPoint x="654" y="540" as="targetPoint" />
          </mxGeometry>
        </mxCell>
        <mxCell id="O7zSQvzKoPBCbMSIORTm-7" value="" style="edgeStyle=orthogonalEdgeStyle;rounded=0;orthogonalLoop=1;jettySize=auto;html=1;" edge="1" parent="1" source="O7zSQvzKoPBCbMSIORTm-1" target="O7zSQvzKoPBCbMSIORTm-6">
          <mxGeometry relative="1" as="geometry" />
        </mxCell>
        <mxCell id="O7zSQvzKoPBCbMSIORTm-1" value="read-triangleIdx" style="rounded=0;whiteSpace=wrap;html=1;" vertex="1" parent="1">
          <mxGeometry y="240" width="120" height="60" as="geometry" />
        </mxCell>
        <mxCell id="O7zSQvzKoPBCbMSIORTm-14" value="" style="edgeStyle=orthogonalEdgeStyle;rounded=0;orthogonalLoop=1;jettySize=auto;html=1;" edge="1" parent="1" source="O7zSQvzKoPBCbMSIORTm-2" target="O7zSQvzKoPBCbMSIORTm-13">
          <mxGeometry relative="1" as="geometry" />
        </mxCell>
        <mxCell id="O7zSQvzKoPBCbMSIORTm-20" value="triHeader" style="edgeLabel;html=1;align=center;verticalAlign=middle;resizable=0;points=[];" vertex="1" connectable="0" parent="O7zSQvzKoPBCbMSIORTm-14">
          <mxGeometry x="-0.1207" y="2" relative="1" as="geometry">
            <mxPoint as="offset" />
          </mxGeometry>
        </mxCell>
        <mxCell id="O7zSQvzKoPBCbMSIORTm-2" value="getTriangleData" style="rounded=0;whiteSpace=wrap;html=1;" vertex="1" parent="1">
          <mxGeometry x="330" y="240" width="120" height="60" as="geometry" />
        </mxCell>
        <mxCell id="O7zSQvzKoPBCbMSIORTm-8" style="edgeStyle=orthogonalEdgeStyle;rounded=0;orthogonalLoop=1;jettySize=auto;html=1;entryX=0.5;entryY=1;entryDx=0;entryDy=0;exitX=0.5;exitY=1;exitDx=0;exitDy=0;" edge="1" parent="1" source="O7zSQvzKoPBCbMSIORTm-6" target="O7zSQvzKoPBCbMSIORTm-1">
          <mxGeometry relative="1" as="geometry">
            <mxPoint x="250" y="320" as="sourcePoint" />
            <mxPoint x="90" y="350" as="targetPoint" />
          </mxGeometry>
        </mxCell>
        <mxCell id="O7zSQvzKoPBCbMSIORTm-10" value="N" style="edgeLabel;html=1;align=center;verticalAlign=middle;resizable=0;points=[];" vertex="1" connectable="0" parent="O7zSQvzKoPBCbMSIORTm-8">
          <mxGeometry x="0.0505" y="-3" relative="1" as="geometry">
            <mxPoint x="10" y="3" as="offset" />
          </mxGeometry>
        </mxCell>
        <mxCell id="O7zSQvzKoPBCbMSIORTm-11" value="" style="edgeStyle=orthogonalEdgeStyle;rounded=0;orthogonalLoop=1;jettySize=auto;html=1;" edge="1" parent="1" source="O7zSQvzKoPBCbMSIORTm-6" target="O7zSQvzKoPBCbMSIORTm-2">
          <mxGeometry relative="1" as="geometry" />
        </mxCell>
        <mxCell id="O7zSQvzKoPBCbMSIORTm-12" value="Y" style="edgeLabel;html=1;align=center;verticalAlign=middle;resizable=0;points=[];" vertex="1" connectable="0" parent="O7zSQvzKoPBCbMSIORTm-11">
          <mxGeometry x="0.0653" y="-1" relative="1" as="geometry">
            <mxPoint x="-7" y="-1" as="offset" />
          </mxGeometry>
        </mxCell>
        <mxCell id="O7zSQvzKoPBCbMSIORTm-6" value="num&amp;gt;32" style="rhombus;whiteSpace=wrap;html=1;rounded=0;" vertex="1" parent="1">
          <mxGeometry x="180" y="230" width="80" height="80" as="geometry" />
        </mxCell>
        <mxCell id="O7zSQvzKoPBCbMSIORTm-19" value="" style="edgeStyle=orthogonalEdgeStyle;rounded=0;orthogonalLoop=1;jettySize=auto;html=1;" edge="1" parent="1" source="O7zSQvzKoPBCbMSIORTm-13" target="O7zSQvzKoPBCbMSIORTm-18">
          <mxGeometry relative="1" as="geometry" />
        </mxCell>
        <mxCell id="O7zSQvzKoPBCbMSIORTm-13" value="earlyZcull" style="rounded=0;whiteSpace=wrap;html=1;" vertex="1" parent="1">
          <mxGeometry x="530" y="240" width="120" height="60" as="geometry" />
        </mxCell>
        <mxCell id="O7zSQvzKoPBCbMSIORTm-15" value="pixelCoverage" style="rounded=0;whiteSpace=wrap;html=1;" vertex="1" parent="1">
          <mxGeometry x="730" y="240" width="120" height="60" as="geometry" />
        </mxCell>
        <mxCell id="O7zSQvzKoPBCbMSIORTm-21" style="edgeStyle=orthogonalEdgeStyle;rounded=0;orthogonalLoop=1;jettySize=auto;html=1;entryX=0;entryY=0.5;entryDx=0;entryDy=0;" edge="1" parent="1" source="O7zSQvzKoPBCbMSIORTm-18" target="O7zSQvzKoPBCbMSIORTm-15">
          <mxGeometry relative="1" as="geometry">
            <mxPoint x="710" y="320" as="targetPoint" />
          </mxGeometry>
        </mxCell>
        <mxCell id="O7zSQvzKoPBCbMSIORTm-25" value="N" style="edgeLabel;html=1;align=center;verticalAlign=middle;resizable=0;points=[];" vertex="1" connectable="0" parent="O7zSQvzKoPBCbMSIORTm-21">
          <mxGeometry x="-0.0637" y="-1" relative="1" as="geometry">
            <mxPoint as="offset" />
          </mxGeometry>
        </mxCell>
        <mxCell id="O7zSQvzKoPBCbMSIORTm-23" value="" style="edgeStyle=orthogonalEdgeStyle;rounded=0;orthogonalLoop=1;jettySize=auto;html=1;" edge="1" parent="1" source="O7zSQvzKoPBCbMSIORTm-18" target="O7zSQvzKoPBCbMSIORTm-22">
          <mxGeometry relative="1" as="geometry" />
        </mxCell>
        <mxCell id="O7zSQvzKoPBCbMSIORTm-24" value="Y" style="edgeLabel;html=1;align=center;verticalAlign=middle;resizable=0;points=[];" vertex="1" connectable="0" parent="O7zSQvzKoPBCbMSIORTm-23">
          <mxGeometry x="0.0071" relative="1" as="geometry">
            <mxPoint as="offset" />
          </mxGeometry>
        </mxCell>
        <mxCell id="O7zSQvzKoPBCbMSIORTm-18" value="res=-1?" style="rhombus;whiteSpace=wrap;html=1;rounded=0;" vertex="1" parent="1">
          <mxGeometry x="550" y="340" width="80" height="80" as="geometry" />
        </mxCell>
        <mxCell id="O7zSQvzKoPBCbMSIORTm-22" value="culling" style="ellipse;whiteSpace=wrap;html=1;rounded=0;" vertex="1" parent="1">
          <mxGeometry x="550" y="500" width="80" height="80" as="geometry" />
        </mxCell>
      </root>
    </mxGraphModel>
  </diagram>
</mxfile>
